<?xml version="1.0" encoding="utf-8"?>
<svg xmlns="http://www.w3.org/2000/svg" width="1910" height="977" viewBox="0 0 1910 977" fill="none">
<path d="M1409.98 707.894C1402.69 711.642 1395.91 716.39 1390.13 722.138M1367.01 793.103C1368.27 801.1 1370.78 808.846 1374.55 816.342M1435.36 860.071C1443.41 861.32 1451.7 861.32 1459.75 860.071M1520.3 816.342C1524.08 809.095 1526.58 801.349 1527.84 793.103M1504.72 722.138C1498.95 716.39 1492.16 711.642 1484.87 707.894M1437.38 745.127C1429.08 747.376 1422.04 752.623 1417.26 759.62M1410.98 778.611C1410.74 787.106 1413.5 795.603 1418.78 802.099M1435.12 814.094C1443.15 817.092 1451.95 817.092 1459.99 814.094M1476.33 802.348C1481.6 795.603 1484.37 787.357 1484.11 778.86M1477.83 759.62C1473.06 752.623 1465.77 747.376 1457.73 745.127M1350.67 798.351L1371.78 791.604C1375.81 790.355 1380.08 789.355 1384.35 788.605C1389.38 787.856 1394.4 787.106 1399.68 786.107C1401.94 785.856 1403.95 787.106 1404.7 789.105C1405.21 790.355 1405.71 791.854 1405.96 793.103C1406.47 794.353 1406.96 795.852 1407.22 797.102C1407.73 799.101 1406.71 801.349 1404.95 802.348C1400.43 804.598 1395.66 807.096 1391.13 809.346C1387.37 811.345 1383.35 813.093 1379.32 814.343L1358.21 821.09M1399.93 694.151L1413 712.142C1415.51 715.64 1417.77 719.389 1419.78 723.137C1422.04 727.635 1424.31 732.383 1426.81 736.88C1427.83 738.879 1427.32 741.129 1425.57 742.628C1424.31 743.627 1423.3 744.376 1422.04 745.127C1420.79 746.126 1419.78 746.876 1418.52 747.625C1416.77 748.875 1414.25 748.625 1412.75 747.125C1409.23 743.377 1405.46 739.879 1401.94 736.381C1398.93 733.382 1396.16 730.134 1393.65 726.635L1380.58 708.644M1514.78 708.395L1501.71 726.385C1499.19 729.884 1496.43 733.132 1493.42 736.131C1489.64 739.63 1486.13 743.377 1482.36 746.876C1480.85 748.375 1478.34 748.625 1476.58 747.376C1475.32 746.626 1474.32 745.626 1473.06 744.877C1471.8 744.127 1470.8 743.128 1469.54 742.377C1467.78 741.129 1467.28 738.63 1468.28 736.631C1470.54 732.132 1473.06 727.635 1475.32 722.887C1477.33 719.139 1479.6 715.391 1482.1 711.893L1495.17 693.901M1536.64 821.59L1515.53 814.843C1511.51 813.594 1507.48 811.844 1503.72 809.845C1499.19 807.596 1494.68 805.098 1489.9 802.848C1487.89 801.849 1486.88 799.601 1487.63 797.602C1488.14 796.102 1488.38 794.852 1488.89 793.603C1489.4 792.103 1489.64 790.855 1490.15 789.605C1490.9 787.606 1493.16 786.357 1495.17 786.606C1500.2 787.357 1505.23 788.106 1510.51 789.105C1514.78 789.855 1519.05 790.604 1523.07 792.103L1544.18 798.85M1435.36 877.063V854.823C1435.36 850.575 1435.61 846.328 1436.36 842.08C1437.12 837.083 1438.13 832.084 1438.88 826.837C1439.13 824.588 1441.14 823.089 1443.15 822.838C1444.67 822.838 1446.17 822.838 1447.43 822.838C1448.94 822.838 1450.44 822.838 1451.7 822.838C1453.96 822.838 1455.72 824.588 1455.97 826.837C1456.72 831.835 1457.48 836.832 1458.49 842.08C1459.24 846.328 1459.49 850.575 1459.49 854.823V877.063M1435.12 682.657V696.9C1435.12 704.396 1435.36 711.893 1436.12 719.639C1436.36 722.387 1438.63 724.386 1441.14 724.636H1453.71C1456.48 724.636 1458.73 722.387 1458.73 719.639C1459.24 712.142 1459.75 704.646 1459.75 696.9V682.657M1350.67 761.619L1364.49 766.116C1371.78 768.366 1379.08 770.365 1386.36 772.113C1389.12 772.613 1391.64 771.364 1392.64 768.865L1396.66 756.871C1397.41 754.372 1396.16 751.623 1393.65 750.374C1386.61 747.375 1379.57 744.876 1372.29 742.628L1358.47 738.13M1400.19 865.819L1408.73 854.324C1413.25 848.327 1417.52 841.829 1421.29 835.583C1422.8 833.334 1422.3 830.336 1420.04 828.586L1415.01 824.839L1409.73 820.84C1407.47 819.34 1404.46 819.84 1402.69 821.839C1397.67 827.586 1393.14 833.584 1388.63 839.581L1380.08 851.075M1515.02 851.325L1506.48 839.83C1501.96 833.834 1497.18 827.837 1492.41 822.089C1490.65 820.091 1487.63 819.591 1485.37 821.09L1475.32 828.586C1473.31 830.336 1472.55 833.334 1474.06 835.583C1478.08 842.08 1482.1 848.327 1486.63 854.324L1495.17 865.819M1536.64 738.13L1522.82 742.628C1515.53 744.876 1508.5 747.625 1501.45 750.374C1498.95 751.374 1497.69 754.122 1498.44 756.871L1502.46 768.865C1503.46 771.364 1506.23 772.863 1508.74 772.113C1516.03 770.365 1523.57 768.366 1530.61 766.116L1544.43 761.619M1415.51 715.64L1435.12 699.648C1443.15 698.399 1451.44 698.399 1459.75 699.648L1479.6 715.64M1376.05 790.355L1367.01 766.867C1368.27 758.62 1370.78 750.624 1374.55 743.377L1395.91 729.884M1435.36 850.575L1410.23 852.076C1402.69 848.327 1395.91 843.33 1390.13 837.582L1383.59 813.094M1511.26 813.094L1504.98 837.582C1498.95 843.33 1492.16 848.327 1484.87 852.076L1459.49 850.575M1499.19 729.884L1520.3 743.377C1523.82 750.874 1526.58 758.62 1527.84 766.867L1518.8 790.355M1413.5 768.865C1413.5 768.366 1413.75 768.115 1413.75 767.616C1413.75 766.866 1413.75 766.367 1413.5 765.617C1413.25 764.866 1413 764.367 1412.49 763.867C1412 763.367 1411.49 762.868 1410.98 762.618C1410.49 762.368 1409.73 762.119 1408.97 761.868C1408.22 761.619 1407.47 761.868 1406.96 761.868C1406.21 762.119 1405.71 762.368 1404.95 762.618C1404.46 763.118 1403.95 763.367 1403.45 764.117C1402.95 764.617 1402.69 765.367 1402.69 765.867C1402.69 766.367 1402.45 767.116 1402.69 767.866C1402.69 768.615 1402.95 769.115 1403.45 769.865C1403.7 770.365 1404.2 770.864 1404.7 771.364C1405.21 771.864 1405.96 772.113 1406.47 772.363C1407.22 772.613 1407.97 772.613 1408.48 772.613C1409.23 772.613 1409.73 772.364 1410.49 772.113C1410.98 771.864 1411.74 771.364 1412 770.864C1412.24 770.365 1413.25 769.865 1413.5 768.865ZM1413.5 768.865C1413.5 769.115 1413.5 769.115 1413.5 768.865ZM336.672 537.726V593.949M336.672 593.949C233.412 593.949 149.703 677.185 149.703 779.859C149.703 882.535 233.412 965.77 336.671 965.77C439.931 965.77 523.64 882.535 523.64 779.859C523.64 677.185 439.931 593.949 336.672 593.949ZM299.227 707.894C291.94 711.642 285.155 716.39 279.374 722.138M256.506 766.867C257.762 758.62 260.275 750.624 264.045 743.377L285.155 729.884M256.254 793.103C257.512 801.1 260.024 808.846 263.794 816.342M324.609 860.071C332.651 861.32 340.944 861.32 348.985 860.071M409.549 816.342C413.318 809.095 415.831 801.349 417.089 793.103M409.8 743.377C413.318 750.874 416.083 758.62 417.339 766.867L408.041 790.355M393.969 722.138C388.188 716.39 381.403 711.642 374.116 707.894M324.609 699.648C332.651 698.399 340.944 698.399 349.236 699.648L368.838 715.64M326.62 745.127C318.326 747.376 311.29 752.623 306.515 759.62M300.233 778.611C299.981 787.106 302.746 795.603 308.023 802.099M324.358 814.094C332.399 817.092 341.195 817.092 349.236 814.094M365.571 802.348C370.849 795.603 373.613 787.357 373.362 778.86M367.079 759.62C362.304 752.623 355.017 747.376 346.975 745.127M240.171 798.351L261.281 791.604C265.302 790.355 269.574 789.355 273.847 788.605C278.872 787.856 283.898 787.106 289.175 786.107C291.438 785.856 293.448 787.106 294.202 789.105C294.704 790.355 295.207 791.854 295.458 793.103C295.961 794.353 296.463 795.852 296.715 797.102C297.217 799.101 296.211 801.349 294.453 802.348C289.93 804.598 285.155 807.096 280.632 809.346C276.862 811.345 272.841 813.093 268.82 814.343L247.711 821.09M289.175 694.151L302.243 712.142C304.756 715.64 307.018 719.389 309.029 723.137C311.29 727.635 313.552 732.383 316.064 736.88C317.07 738.879 316.568 741.129 314.808 742.628C313.552 743.627 312.546 744.376 311.29 745.127C310.033 746.126 309.029 746.876 307.771 747.625C306.012 748.875 303.5 748.625 301.992 747.125C298.473 743.377 294.704 739.879 291.186 736.381C288.17 733.382 285.405 730.134 282.893 726.635L269.825 708.644M404.021 708.395L390.953 726.385C388.44 729.884 385.675 733.132 382.659 736.131C378.89 739.63 375.372 743.377 371.603 746.876C370.095 748.375 367.581 748.625 365.822 747.376C364.566 746.626 363.56 745.626 362.304 744.877C361.048 744.127 360.043 743.128 358.786 742.377C357.027 741.129 356.525 738.63 357.529 736.631C359.791 732.132 362.304 727.635 364.566 722.887C366.576 719.139 368.838 715.391 371.351 711.893L384.419 693.901M425.884 821.59L404.775 814.843C400.754 813.594 396.733 811.844 392.963 809.845C388.44 807.596 383.916 805.098 379.141 802.848C377.131 801.849 376.126 799.601 376.88 797.602C377.382 796.102 377.634 794.852 378.136 793.603C378.639 792.103 378.89 790.855 379.393 789.605C380.147 787.606 382.409 786.357 384.419 786.606C389.445 787.357 394.471 788.106 399.748 789.105C404.021 789.855 408.293 790.604 412.314 792.103L433.423 798.85M324.609 877.063V854.823C324.609 850.575 324.86 846.328 325.614 842.08C326.368 837.083 327.374 832.084 328.128 826.837C328.378 824.588 330.389 823.089 332.399 822.838C333.907 822.838 335.415 822.838 336.671 822.838C338.18 822.838 339.688 822.838 340.944 822.838C343.205 822.838 344.965 824.588 345.215 826.837C345.969 831.835 346.723 836.832 347.729 842.08C348.483 846.328 348.734 850.575 348.734 854.823V877.063M324.358 682.657V696.9C324.358 704.396 324.609 711.893 325.363 719.639C325.614 722.387 327.876 724.386 330.389 724.636H342.954C345.719 724.636 347.98 722.387 347.98 719.639C348.483 712.142 348.985 704.646 348.985 696.9V682.657M239.92 761.619L253.742 766.116C261.029 768.366 268.318 770.365 275.605 772.113C278.37 772.613 280.882 771.364 281.888 768.865L285.909 756.871C286.663 754.372 285.405 751.623 282.893 750.374C275.857 747.375 268.82 744.876 261.533 742.628L247.711 738.13M289.427 865.819L297.971 854.324C302.494 848.327 306.767 841.829 310.537 835.583C312.044 833.334 311.541 830.336 309.279 828.586L304.002 824.588L298.977 820.84C296.715 819.34 293.699 819.84 291.94 821.839C286.913 827.586 282.39 833.584 277.867 839.581L269.322 851.075M404.271 851.325L395.727 839.83C391.204 833.834 386.43 827.837 381.655 822.089C379.895 820.091 376.88 819.591 374.618 821.09L364.566 828.586C362.556 830.336 361.802 833.334 363.31 835.583C367.33 842.08 371.351 848.327 375.874 854.324L384.419 865.819M425.884 738.13L412.062 742.628C404.775 744.876 397.738 747.625 390.701 750.374C388.188 751.374 386.932 754.122 387.686 756.871L391.707 768.865C392.711 771.364 395.476 772.863 397.989 772.113C405.277 770.365 412.816 768.366 419.853 766.116L433.674 761.619M324.358 699.648L304.756 715.64M256.254 766.867L265.302 790.355M324.609 850.575L299.479 852.076C291.94 848.327 285.155 843.33 279.374 837.582L272.841 813.094M400.754 813.094L394.219 837.582C388.188 843.33 381.403 848.327 374.116 852.076L348.985 850.575M409.549 743.377L388.44 729.884M302.746 768.865C302.746 768.366 302.997 768.115 302.997 767.616C302.997 766.866 302.996 766.367 302.746 765.617C302.494 764.866 302.243 764.367 301.74 763.867C301.238 763.367 300.735 762.868 300.233 762.618C299.73 762.368 298.977 762.119 298.223 761.868C297.469 761.868 296.715 761.868 296.212 761.868C295.709 761.868 294.955 762.368 294.202 762.618C293.699 763.118 293.196 763.367 292.694 764.117C292.192 764.617 291.94 765.367 291.94 765.867C291.94 766.367 291.688 767.116 291.94 767.866C291.94 768.615 292.192 769.115 292.694 769.865C292.945 770.365 293.448 770.864 293.95 771.364C294.453 771.864 295.207 772.113 295.709 772.363C296.463 772.613 297.217 772.613 297.719 772.613C298.473 772.613 298.977 772.364 299.73 772.113C300.233 771.864 300.987 771.364 301.238 770.864C302.243 770.365 302.494 769.865 302.746 768.865ZM302.746 768.865C302.746 769.115 302.746 769.115 302.746 768.865ZM1655.76 681.158C1651.73 681.407 1647.97 679.158 1646.21 675.41C1634.65 648.173 1622.08 621.436 1608.76 594.949C1590.16 560.965 1554.23 539.725 1515.28 539.725H1378.57C1335.85 542.224 1298.15 568.712 1282.07 608.193C1272.77 630.682 1264.98 653.67 1258.7 677.159C1256.18 680.907 1252.42 683.406 1247.89 684.156M1655.76 681.158C1663.05 691.903 1676.87 696.4 1689.18 691.652M1655.76 681.158C1644.2 650.422 1630.62 620.437 1615.55 591.45C1595.45 554.969 1557.25 532.479 1515.28 532.479H1378.57C1332.83 534.977 1292.62 563.464 1275.04 605.694C1264.23 631.932 1255.18 658.668 1247.39 685.905C1244.62 691.152 1239.85 694.901 1234.32 696.4C1227.79 698.399 1221.25 699.898 1214.47 700.149M738.001 93.1905H1778.14M1132.05 16.2276V93.1905M1127.27 93.1905V16.9772M1765.57 59.9565C1768.84 60.2064 1771.6 57.7076 1771.6 54.4592V48.4621C1771.6 46.7129 1773.11 45.2136 1774.87 45.2136C1776.64 45.2136 1778.14 46.7129 1778.14 48.4621V99.1876H736.996M736.996 99.1876C736.744 99.1876 736.492 98.9377 736.492 98.9377C735.738 98.438 735.488 97.1886 735.99 96.439C739.76 90.9416 743.027 85.1944 746.545 79.4472C749.56 74.6994 753.581 70.7013 758.356 67.7028C772.43 60.7062 787.507 55.9584 803.088 53.7095C921.2 43.4645 1039.06 29.7211 1156.41 12.4794C1160.7 11.7297 1164.96 11.23 1169.23 11.23H1711.05C1720.34 12.9791 1729.39 15.7278 1737.93 18.9762H1762.56C1764.06 18.9762 1765.57 20.4755 1765.32 21.9748V660.417C1765.08 662.167 1763.82 663.416 1762.05 664.166L1691.19 691.152C1690.93 691.152 1690.93 691.152 1690.69 691.403C1688.17 691.903 1685.91 690.653 1685.16 688.154C1672.85 639.677 1654.25 592.7 1630.38 548.721C1617.31 524.732 1595.19 506.991 1569.05 499.495C1547.19 493.248 1524.57 489.999 1501.71 489.999H1382.59C1364.49 489.999 1346.4 492.249 1328.81 496.996C1308.45 502.494 1290.87 515.237 1278.8 532.479C1247.14 581.955 1225.78 636.929 1215.97 694.65C1213.96 705.895 1204.41 713.892 1193.11 713.892H598.779C591.492 713.892 584.455 712.393 577.922 709.644C571.136 706.894 566.362 701.148 564.351 694.151C552.54 647.423 536.707 601.946 516.855 557.967C499.767 519.985 464.333 493.497 422.868 487.75C368.838 480.254 314.306 480.254 260.275 487.75C244.444 490.499 228.612 493.748 213.283 497.495C184.132 504.742 159.504 523.733 145.179 549.97C127.839 581.705 115.023 615.939 107.233 651.422C106.981 652.671 105.976 653.67 104.72 653.67C96.4268 654.92 87.6312 654.67 79.3382 652.921C78.0816 652.671 77.0765 651.422 77.0765 650.172V509.241C77.0765 494.497 77.5791 479.754 78.5843 465.012C80.5948 432.527 106.479 406.289 139.399 404.041C155.483 402.791 171.566 402.041 187.649 401.792H1765.57M736.996 99.1876L619.637 314.584C618.632 316.833 618.13 319.332 618.13 321.831V670.163M1765.57 434.026H154.98C122.814 434.026 96.6781 460.014 96.6781 491.998V492.249L96.9293 654.421M557.817 670.163L1221.25 669.912M1085.55 669.913V99.4375M1085.55 353.315H1765.57M1770.1 114.18H1780.15V141.417H1770.1M1770.1 114.18V141.417M1770.1 114.18V106.684H1765.57M1770.1 141.417V146.415H1765.57M1765.57 327.078H1769.1V146.415M1767.58 367.308V381.051H1765.57M1765.57 389.797H1770.35V404.041H1765.57M635.219 670.163V322.83C635.219 321.08 635.721 319.082 636.475 317.333L756.346 99.4375M704.829 343.569V354.565C704.829 355.564 703.823 356.314 702.818 356.314H696.285C695.279 356.064 694.777 355.315 694.777 354.565V343.07C695.028 342.57 695.279 342.321 696.033 342.321H703.824C704.326 342.321 704.829 343.07 704.829 343.569ZM704.829 343.569H1022.73C1038.81 343.569 1052.13 330.826 1052.13 314.584V155.161C1052.13 139.169 1039.06 125.924 1022.73 125.924H796.554C784.994 126.674 774.188 133.171 768.157 142.916L715.384 233.873M715.384 233.873C719.153 234.623 722.169 237.87 722.169 241.869V334.075C722.169 335.323 721.415 336.573 719.907 336.824C714.378 338.323 708.598 338.323 703.07 337.323C701.311 336.573 700.054 334.824 700.054 332.825V330.326C700.054 329.826 699.552 329.327 698.798 329.077C696.033 328.327 693.521 327.578 691.007 326.579C689.751 326.079 688.746 324.829 688.244 323.579C686.484 319.332 685.982 314.584 686.484 310.086C688.997 287.097 691.259 264.108 693.521 241.119C693.771 237.121 697.29 233.873 701.562 233.873H715.384ZM690.002 277.851L675.176 303.089C671.406 309.336 668.893 316.332 667.887 323.579C667.636 333.324 674.672 341.821 684.473 343.32H694.777M718.399 337.573H1022.73C1035.54 337.573 1046.1 327.328 1046.35 314.584C1046.35 314.584 1046.35 314.584 1046.35 314.334V155.161C1046.35 142.416 1035.79 131.922 1022.98 131.922C1022.98 131.922 1022.98 131.922 1022.73 131.922H796.806C787.005 132.671 778.461 137.919 773.183 146.165L720.41 236.871M688.494 292.095L680.201 306.087C676.934 311.586 674.672 317.833 673.668 324.329C673.668 330.826 678.191 336.573 684.725 337.573H695.531M761.623 99.4375L640.496 319.832C639.992 320.831 639.742 322.08 639.742 323.079V666.914H1080.52V99.4375M978.999 469.76C980.507 461.763 987.041 455.766 995.083 455.016H1014.68C1022.73 455.766 1029.26 461.763 1030.77 469.76M1030.52 486.001V487.25C1030.52 489.25 1029.76 491.249 1028.76 492.998C1026.5 496.746 1022.47 499.245 1018.2 499.995H991.062C986.79 499.245 983.021 496.746 980.507 492.998C979.502 491.249 978.748 489.25 978.748 487.25V486.001M1032.53 486.001C1036.8 481.504 1037.3 474.757 1033.28 469.76M666.631 262.359L648.035 262.609M636.223 284.098L631.449 274.853C630.695 273.604 630.695 272.105 630.946 270.855C631.449 267.856 632.705 264.858 634.213 262.109C634.967 260.61 636.475 259.861 638.234 259.61C639.49 259.361 640.747 258.861 641.752 258.111L648.286 246.367C650.548 242.618 655.071 240.87 659.343 242.119M629.69 608.942V647.923M629.69 618.687H635.219M629.69 638.677H635.219M629.69 359.313V398.294M629.69 369.058H635.219M629.69 389.048H635.219M694.777 344.069H635.219M694.777 353.565L653.312 358.063L650.799 358.313C649.542 358.562 648.537 357.563 648.286 356.564C647.783 352.315 647.783 348.317 648.286 344.069M695.782 328.327V342.321M703.573 342.321V337.573H703.321M618.13 339.322H537.211C505.798 340.071 474.385 342.321 443.475 346.319C387.183 353.065 330.64 358.813 274.097 363.56C259.522 364.81 245.198 366.06 230.622 367.559C221.826 368.558 212.779 368.558 203.733 367.559M580.686 339.322L592.496 331.576C593.754 330.826 595.261 330.077 596.769 329.577C604.81 327.328 612.35 323.33 618.632 317.833M595.513 330.077L579.68 320.581C566.362 312.585 550.781 308.587 535.2 309.087C467.097 311.335 398.994 318.832 332.148 331.825C286.159 340.571 241.177 353.315 197.199 369.807C192.927 371.306 188.655 372.556 184.132 373.056C161.765 375.805 139.399 379.053 117.033 383.05C95.6729 388.549 79.0869 405.79 74.5634 427.279C74.3122 428.778 75.3174 430.278 76.8252 430.528C81.3486 430.778 86.1233 431.028 90.6467 431.278M567.366 701.397C560.581 700.648 553.796 699.398 547.263 697.649C545 696.9 542.99 695.15 542.488 692.652C532.938 654.92 518.866 618.687 500.521 584.454C488.709 562.214 468.103 545.972 443.475 539.476C415.329 531.979 386.178 528.231 357.027 528.231H336.671L284.903 528.481C262.035 529.48 239.417 533.229 217.554 539.725C199.461 546.223 183.126 556.968 170.058 570.96C156.488 587.952 145.431 606.694 137.389 626.684C132.363 637.678 124.07 646.923 113.516 653.171C111.254 654.421 108.489 654.421 106.479 652.921M482.93 663.666C499.013 668.164 515.096 672.161 531.18 675.66M543.242 694.151C540.729 693.901 538.215 692.902 536.205 691.403C535.451 690.903 534.697 689.902 534.446 688.903C526.405 654.17 513.337 620.936 495.996 589.951C484.186 568.961 464.333 553.719 441.213 547.722C416.334 541.224 390.953 537.977 365.32 537.977H305.008C282.893 538.226 260.779 540.475 239.167 544.723C205.994 551.469 176.843 571.71 159.252 600.696C153.975 609.441 149.452 618.687 145.933 628.183C142.415 637.678 136.384 646.174 128.342 652.921C126.834 654.17 125.076 654.67 123.316 654.67C120.049 654.67 116.783 653.921 113.766 653.171M296.965 537.977V598.197M307.771 537.726V596.198M318.578 537.726V594.699M346.221 537.726V594.199M353.006 537.726V594.699M362.053 537.726V595.698M371.603 537.977L371.351 597.198M81.0973 657.419C122.814 657.919 164.781 654.67 205.994 647.174M1247.65 685.905C1255.43 693.402 1264.73 699.649 1274.53 704.146M1295.89 670.913C1285.83 665.415 1275.53 660.417 1264.73 656.419M1304.69 659.668C1297.15 657.919 1289.36 659.667 1283.33 664.166M1289.36 660.917C1283.07 655.17 1275.53 650.672 1267.5 648.423M1570.56 639.927C1593.43 650.921 1617.31 659.667 1641.94 665.914M30.3343 713.392V719.389C30.3343 722.138 32.3447 724.137 35.109 724.386L82.8564 723.137C89.8929 722.887 96.9293 721.887 103.715 719.639C109.746 717.639 116.029 716.14 122.311 715.141C136.636 712.892 150.708 710.143 164.529 706.894M77.3278 650.921H72.3018C71.0452 650.921 70.04 650.422 68.7835 649.922C62.501 647.174 56.9723 643.176 52.1976 638.428C48.4281 634.43 46.4177 629.432 46.4177 623.935V459.515C46.4177 454.016 48.6793 448.769 52.4489 444.771C58.7314 438.274 66.5218 433.027 75.0661 429.778M47.4229 452.517L32.3448 459.264C31.3396 459.514 31.0882 460.514 31.3396 461.514C31.5908 462.013 31.8421 462.263 32.3448 462.513L46.1663 463.512M46.1663 471.759L32.3448 478.005C31.3396 478.255 31.0882 479.255 31.3396 480.254C31.5908 480.754 31.8421 481.004 32.3448 481.253L46.1663 482.253M46.1663 490.499L32.3448 496.746C31.3396 496.995 31.0882 497.996 31.3396 498.996C31.5908 499.495 31.8421 499.745 32.3448 499.995L46.1663 500.994M46.1663 508.99L32.3448 515.237C31.3396 515.487 31.0882 516.487 31.3396 517.487C31.5908 517.986 31.8421 518.236 32.3448 518.486L46.1663 519.486M46.1663 527.732L32.3448 533.978C31.3396 534.228 31.0882 535.228 31.3396 536.227C31.5908 536.727 31.8421 536.977 32.3448 537.227L46.1663 538.226M46.1663 588.951L32.3448 595.199C31.3396 595.449 31.0882 596.448 31.3396 597.448C31.5908 597.948 31.8421 598.197 32.3448 598.447L46.1663 599.447M46.1663 609.941L32.3448 616.188C31.3396 616.439 31.0882 617.438 31.3396 618.438C31.5908 618.937 31.8421 619.187 32.3448 619.437L46.1663 620.437M74.8148 426.03H53.4541C48.9307 426.03 45.1611 429.278 44.6586 433.777C43.9047 440.523 43.402 447.27 43.6533 454.016M46.1663 549.97L32.3448 556.217C31.5908 556.468 31.3396 557.217 31.3396 557.717V578.457C31.3396 579.206 31.8421 579.706 32.596 580.206L46.4177 581.205M46.1663 559.966L31.3396 557.967M84.6155 441.523L75.0661 451.018C73.307 452.768 72.0504 455.016 71.2965 457.515C69.5374 464.012 68.7835 470.509 69.0349 477.256V597.697C69.0349 602.445 72.5531 606.443 77.3278 606.943M69.0349 537.477C63.0035 539.226 59.4853 545.473 61.2444 551.469C62.2497 555.218 65.2653 558.216 69.0349 559.216M69.5374 466.511C63.2549 468.01 59.4853 474.257 60.9931 480.254C61.9983 484.252 65.014 487.251 68.7835 488.5M558.822 700.149V731.883C558.822 734.131 560.581 736.13 562.843 736.381H627.428M603.806 714.391V719.14C603.806 720.388 604.56 721.638 605.564 722.387C608.581 724.137 612.099 725.636 615.366 726.635C620.391 728.135 625.418 729.634 630.192 731.133M521.378 749.124L626.674 742.377M522.886 760.12L626.674 753.622M555.304 758.121C581.188 765.867 607.575 771.114 634.465 773.612M601.544 769.115V898.553C601.544 899.801 602.549 901.051 604.056 901.051C605.314 901.051 606.57 900.052 606.57 898.553L606.821 769.865M1759.29 781.858V898.553C1759.29 899.801 1760.3 901.051 1761.81 901.051C1763.06 901.051 1764.32 900.052 1764.32 898.553L1764.57 781.858M723.676 774.862V783.108C723.676 785.358 722.922 787.606 721.415 789.355C719.405 791.854 716.137 793.353 712.87 793.604H668.139C664.872 793.353 661.605 791.854 659.595 789.355C658.087 787.606 657.333 785.358 657.333 783.108V774.862M1001.37 714.391V725.886M1001.37 774.862V777.861C1001.37 781.858 1004.63 785.107 1008.65 785.107H1051.12C1054.64 785.107 1057.66 782.358 1057.91 778.86V774.862M1057.91 725.886V714.391M1129.78 714.391V725.886M1134.55 714.391V725.886M1140.08 714.391V725.886M1164.21 714.391V725.886M1261.71 758.87L1194.37 754.372M1260.71 770.864L1193.86 765.617M1185.82 774.112C1210.45 778.611 1235.33 782.109 1260.45 784.108M1692.19 727.386C1689.43 709.144 1682.15 700.648 1675.61 708.144C1669.07 715.64 1666.06 736.381 1668.58 754.621C1671.34 772.863 1678.62 781.359 1685.16 773.863C1687.68 770.864 1689.93 765.617 1691.19 758.87M1680.38 705.395L1616.56 700.149M1680.38 776.612L1634.4 770.864M1770.1 729.134L1668.82 726.885M1763.82 760.369L1669.33 758.37M1711.05 759.369C1721.85 766.616 1733.16 773.363 1744.72 779.11C1748.23 780.859 1752.01 781.858 1756.02 781.858H1769.59C1773.87 781.858 1777.88 778.86 1778.9 774.613M1732.16 699.898L1713.81 717.89C1707.78 723.886 1698.23 724.886 1690.93 720.639M1748.48 669.913L1769.85 671.412V648.673C1769.85 645.924 1768.09 643.425 1765.57 642.177M1802.51 691.652V715.891H1774.87V685.405M1774.87 685.405H1799.5M1774.87 685.405C1773.37 687.904 1772.36 690.403 1771.36 692.902C1771.1 693.901 1770.1 694.401 1769.1 694.401C1767.84 694.401 1766.83 693.402 1766.83 692.152V674.16L1789.2 674.66M1769.85 671.162L1782.92 672.661C1789.2 673.411 1794.73 677.159 1797.74 682.657C1803.28 692.652 1808.04 702.897 1811.57 713.892C1811.81 714.641 1812.32 715.391 1812.81 715.891M1825.13 716.14C1826.39 715.391 1826.89 713.892 1826.65 712.393L1811.57 678.658C1807.29 669.163 1799 662.167 1788.95 659.418C1782.66 657.668 1776.38 656.419 1770.1 655.669M1763.31 708.395L1762.81 729.134M1767.33 729.134V693.651M1767.33 706.145H1774.87M1817.85 715.891V776.612C1817.85 780.61 1821.12 784.108 1825.39 784.108C1829.41 784.108 1832.93 780.859 1832.93 776.612V736.131C1832.93 727.885 1830.91 719.639 1826.65 712.642M1832.67 761.868H1845.75M1845.75 761.868V782.609H1839.71C1836.69 782.609 1833.93 781.109 1832.42 778.611M1845.75 761.868H1862.33C1864.08 761.868 1865.34 763.367 1865.34 764.866C1865.34 766.367 1863.83 767.866 1862.33 767.866H1845.75M1845.75 772.863H1862.33C1864.08 772.863 1865.34 774.362 1865.34 775.862C1865.34 777.361 1863.83 778.86 1862.33 778.86H1845.75M1898.76 429.778V256.612C1898.76 248.615 1893.48 241.619 1885.7 239.37H1791.21C1783.41 241.619 1778.14 248.615 1778.14 256.612V430.278M1898.76 430.528V603.695C1898.76 611.691 1893.48 618.687 1885.7 620.936H1791.21C1790.2 620.686 1789.2 620.186 1788.19 619.686M1778.14 603.695V430.028M1765.57 415.035H1788.19V460.763H1765.57M1765.57 575.958H1788.19V621.687H1778.14M1778.14 621.687H1765.57M1778.14 621.687V597.697M1769.85 460.763V575.958M11.2354 709.644V660.417C11.7379 658.168 13.7483 656.669 16.0101 656.669H79.0869C82.6051 657.419 85.1182 660.668 85.1182 664.166V705.646C85.1182 709.144 82.6051 712.393 79.0869 713.142H16.0101C13.7483 713.392 11.7379 711.642 11.2354 709.644ZM1634.4 779.859C1634.4 882.535 1550.68 965.77 1447.43 965.77C1344.17 965.77 1260.45 882.535 1260.45 779.859C1260.45 677.185 1344.17 593.949 1447.43 593.949C1550.68 593.949 1634.4 677.185 1634.4 779.859ZM1595.69 779.859C1595.69 861.283 1529.31 927.289 1447.43 927.289C1365.54 927.289 1299.16 861.283 1299.16 779.859C1299.16 698.437 1365.54 632.431 1447.43 632.431C1529.31 632.431 1595.69 698.437 1595.69 779.859ZM1552.47 779.859C1552.47 837.546 1505.44 884.31 1447.43 884.31C1389.41 884.31 1342.38 837.546 1342.38 779.859C1342.38 722.174 1389.41 675.41 1447.43 675.41C1505.44 675.41 1552.47 722.174 1552.47 779.859ZM1545.93 779.859C1545.93 833.957 1501.83 877.812 1447.43 877.812C1393.02 877.812 1348.92 833.957 1348.92 779.859C1348.92 725.762 1393.02 681.907 1447.43 681.907C1501.83 681.907 1545.93 725.762 1545.93 779.859ZM1464.77 779.859C1464.77 789.382 1457 797.102 1447.43 797.102C1437.85 797.102 1430.08 789.382 1430.08 779.859C1430.08 770.338 1437.85 762.618 1447.43 762.618C1457 762.618 1464.77 770.338 1464.77 779.859ZM1459.24 738.879C1459.24 745.366 1453.95 750.624 1447.43 750.624C1440.9 750.624 1435.61 745.366 1435.61 738.879C1435.61 732.393 1440.9 727.135 1447.43 727.135C1453.95 727.135 1459.24 732.393 1459.24 738.879ZM1411.8 756.015C1418.02 758.02 1421.41 764.645 1419.39 770.814C1417.38 776.984 1410.71 780.359 1404.51 778.356C1398.3 776.351 1394.91 769.726 1396.93 763.556C1398.94 757.387 1405.6 754.011 1411.8 756.015ZM1430.26 803.583C1435.53 807.395 1436.7 814.74 1432.87 819.987C1429.04 825.234 1421.65 826.397 1416.38 822.585C1411.1 818.772 1409.93 811.428 1413.76 806.18C1417.59 800.932 1424.98 799.77 1430.26 803.583ZM1481.35 806.1C1485.18 811.348 1484.01 818.692 1478.73 822.505C1473.45 826.318 1466.07 825.154 1462.24 819.907C1458.4 814.66 1459.58 807.315 1464.85 803.503C1470.13 799.69 1477.51 800.854 1481.35 806.1ZM1497.88 763.572C1499.9 769.741 1496.5 776.367 1490.29 778.372C1484.09 780.375 1477.43 776.999 1475.41 770.831C1473.4 764.661 1476.79 758.035 1483 756.031C1489.2 754.027 1495.87 757.403 1497.88 763.572ZM1447.43 744.376C1447.93 744.376 1448.18 744.376 1448.68 744.127C1449.43 743.877 1449.94 743.627 1450.44 743.377C1450.95 742.877 1451.44 742.377 1451.95 741.878C1452.45 741.378 1452.7 740.629 1452.7 739.879C1452.96 739.13 1452.96 738.38 1452.7 737.88C1452.7 737.131 1452.45 736.63 1451.95 735.881C1451.7 735.381 1451.2 734.882 1450.69 734.382C1450.2 733.882 1449.43 733.632 1448.94 733.382C1448.43 733.132 1447.68 733.132 1446.93 733.132C1446.17 733.132 1445.67 733.382 1444.91 733.632C1444.41 733.882 1443.66 734.382 1443.41 734.881C1442.9 735.381 1442.66 736.13 1442.4 736.631C1442.15 737.38 1442.15 737.88 1442.15 738.63C1442.15 739.379 1442.4 740.129 1442.66 740.629C1442.9 741.129 1443.41 741.878 1443.9 742.377C1444.41 742.877 1444.91 743.377 1445.67 743.627C1445.91 744.376 1446.67 744.376 1447.43 744.376ZM1426.57 808.596C1426.32 808.346 1425.81 808.096 1425.57 808.096C1425.06 807.847 1424.31 807.596 1423.56 807.596C1422.8 807.596 1422.3 807.596 1421.55 807.847C1420.79 808.096 1420.29 808.346 1419.78 808.846C1419.28 809.346 1418.78 809.846 1418.52 810.595C1418.28 811.345 1418.03 811.844 1418.03 812.595C1418.03 813.344 1418.03 814.094 1418.28 814.594C1418.52 815.343 1418.78 815.842 1419.28 816.342C1419.78 816.842 1420.29 817.341 1420.79 817.592C1421.29 817.841 1422.04 818.092 1422.8 818.341C1423.56 818.341 1424.05 818.341 1424.8 818.341C1425.57 818.092 1426.06 817.841 1426.81 817.592C1427.58 817.341 1427.83 816.592 1428.33 816.093C1428.83 815.593 1429.08 814.843 1429.08 814.094C1429.33 813.344 1429.33 812.595 1429.08 812.095C1429.08 811.345 1428.83 810.845 1428.33 810.095C1427.58 809.595 1427.32 809.095 1426.57 808.596ZM1468.53 808.596C1468.28 808.846 1468.04 809.095 1467.53 809.346C1467.03 809.846 1466.78 810.345 1466.52 811.094C1466.27 811.844 1466.27 812.344 1466.27 813.094C1466.27 813.843 1466.52 814.593 1466.78 815.093C1467.03 815.842 1467.53 816.342 1468.04 816.842C1468.53 817.341 1469.04 817.841 1469.79 818.092C1470.54 818.341 1471.05 818.591 1471.8 818.591C1472.55 818.591 1473.06 818.591 1473.81 818.341C1474.56 818.092 1475.07 817.841 1475.58 817.341C1476.07 816.842 1476.58 816.342 1476.83 815.842C1477.08 815.343 1477.33 814.593 1477.33 813.843C1477.33 813.094 1477.33 812.344 1477.08 811.844C1476.83 811.094 1476.58 810.595 1476.07 810.095C1475.58 809.595 1475.07 809.095 1474.56 808.596C1474.06 808.346 1473.31 808.096 1472.55 807.847C1471.8 807.847 1471.3 807.847 1470.54 807.847C1469.79 807.847 1469.28 808.096 1468.53 808.596ZM1481.35 768.865C1481.35 769.365 1481.6 769.614 1481.86 769.865C1482.1 770.365 1482.61 770.864 1483.11 771.364C1483.61 771.864 1484.37 772.113 1484.87 772.363C1485.37 772.613 1486.13 772.613 1486.88 772.613C1487.63 772.613 1488.38 772.364 1488.89 772.113C1489.64 771.864 1490.15 771.364 1490.65 770.864C1491.15 770.365 1491.41 769.865 1491.65 769.115C1491.91 768.366 1491.91 767.866 1491.91 767.116C1491.91 766.367 1491.65 765.867 1491.41 765.117C1491.15 764.368 1490.65 763.868 1490.15 763.368C1489.64 762.868 1489.15 762.618 1488.38 762.118C1487.63 761.868 1487.14 761.619 1486.37 761.619C1485.62 761.619 1484.87 761.619 1484.37 761.868C1483.87 762.119 1483.11 762.368 1482.61 762.868C1482.1 763.367 1481.6 763.868 1481.35 764.368C1481.1 764.868 1480.85 765.617 1480.85 766.367C1480.85 767.116 1481.1 768.115 1481.35 768.865ZM1462.25 779.859C1462.25 783.862 1455.61 787.106 1447.43 787.106C1439.24 787.106 1432.6 783.862 1432.6 779.859C1432.6 775.857 1439.24 772.613 1447.43 772.613C1455.61 772.613 1462.25 775.857 1462.25 779.859ZM484.94 779.859C484.94 861.283 418.558 927.289 336.671 927.289C254.785 927.289 188.403 861.283 188.403 779.859C188.403 698.437 254.785 632.431 336.671 632.431C418.558 632.431 484.94 698.437 484.94 779.859ZM441.715 779.859C441.715 837.546 394.685 884.31 336.671 884.31C278.657 884.31 231.628 837.546 231.628 779.859C231.628 722.174 278.657 675.41 336.671 675.41C394.685 675.41 441.715 722.174 441.715 779.859ZM435.182 779.859C435.182 833.957 391.077 877.812 336.671 877.812C282.265 877.812 238.161 833.957 238.161 779.859C238.161 725.762 282.265 681.907 336.671 681.907C391.077 681.907 435.182 725.762 435.182 779.859ZM354.011 779.859C354.011 789.382 346.248 797.102 336.671 797.102C327.095 797.102 319.331 789.382 319.331 779.859C319.331 770.338 327.095 762.618 336.671 762.618C346.248 762.618 354.011 770.338 354.011 779.859ZM348.483 738.879C348.483 745.366 343.194 750.624 336.671 750.624C330.149 750.624 324.86 745.366 324.86 738.879C324.86 732.393 330.149 727.135 336.671 727.135C343.194 727.135 348.483 732.393 348.483 738.879ZM301.101 756.098C307.305 758.103 310.701 764.728 308.685 770.897C306.669 777.067 300.006 780.442 293.802 778.438C287.597 776.434 284.202 769.809 286.218 763.639C288.233 757.47 294.897 754.094 301.101 756.098ZM319.502 803.595C324.78 807.408 325.949 814.752 322.114 820C318.281 825.247 310.894 826.41 305.617 822.597C300.339 818.785 299.17 811.44 303.004 806.192C306.839 800.946 314.225 799.782 319.502 803.595ZM370.617 806.14C374.452 811.387 373.282 818.732 368.005 822.544C362.728 826.357 355.342 825.193 351.507 819.946C347.673 814.699 348.842 807.355 354.119 803.542C359.397 799.729 366.784 800.892 370.617 806.14ZM387.079 763.565C389.095 769.734 385.7 776.359 379.495 778.364C373.291 780.368 366.628 776.991 364.612 770.823C362.596 764.653 365.992 758.027 372.196 756.024C378.4 754.02 385.064 757.395 387.079 763.565ZM336.671 744.376C337.174 744.376 337.426 744.376 337.928 744.127C338.682 743.877 339.184 743.627 339.688 743.377C340.19 743.128 340.692 742.377 341.195 741.878C341.698 741.378 341.949 740.629 341.949 739.879C342.2 739.13 342.2 738.38 341.949 737.88C341.949 737.131 341.698 736.63 341.195 735.881C340.944 735.381 340.441 734.882 339.938 734.382C339.436 733.882 338.682 733.632 338.18 733.382C337.426 733.132 336.923 733.132 336.169 733.132C335.415 733.132 334.913 733.382 334.159 733.632C333.655 733.882 332.901 734.382 332.651 734.881C332.148 735.381 331.897 736.13 331.645 736.631C331.394 737.38 331.394 737.88 331.394 738.63C331.394 739.379 331.645 740.129 331.897 740.629C332.148 741.129 332.651 741.878 333.153 742.377C333.655 742.877 334.159 743.377 334.913 743.627C335.163 744.376 335.917 744.376 336.671 744.376ZM315.814 808.596C315.562 808.346 315.06 808.096 314.808 808.096C314.306 807.847 313.552 807.596 312.798 807.596C312.044 807.596 311.541 807.596 310.787 807.847C310.033 808.096 309.531 808.346 309.029 808.846C308.525 809.346 308.023 809.846 307.771 810.595C307.521 811.345 307.269 811.844 307.269 812.595C307.269 813.344 307.269 814.094 307.521 814.594C307.772 815.343 308.023 815.842 308.525 816.342C309.029 816.842 309.531 817.341 310.033 817.592C310.537 817.841 311.29 818.092 312.044 818.341C312.798 818.341 313.3 818.341 314.054 818.341C314.808 818.092 315.31 817.841 316.064 817.592C316.818 817.341 317.07 816.592 317.572 816.093C318.075 815.593 318.326 814.843 318.326 814.094C318.578 813.344 318.578 812.595 318.326 812.095C318.326 811.345 318.075 810.845 317.572 810.095C317.07 809.346 316.568 809.095 315.814 808.596ZM357.781 808.596C357.529 808.846 357.279 809.095 356.775 809.346C356.273 809.846 356.021 810.345 355.771 811.094C355.519 811.844 355.519 812.344 355.519 813.094C355.519 813.843 355.771 814.593 356.021 815.093C356.273 815.593 356.775 816.342 357.279 816.842C357.781 817.341 358.283 817.841 359.037 818.092C359.791 818.341 360.294 818.591 361.048 818.591C361.802 818.591 362.304 818.591 363.058 818.341C363.812 818.092 364.314 817.841 364.818 817.341C365.32 816.842 365.822 816.342 366.074 815.842C366.325 815.343 366.576 814.593 366.576 813.843C366.576 813.094 366.576 812.344 366.325 811.844C366.074 811.345 365.822 810.595 365.32 810.095C364.818 809.595 364.314 809.095 363.812 808.596C363.31 808.346 362.556 808.096 361.802 807.847C361.048 807.847 360.545 807.847 359.791 807.847C359.037 807.847 358.535 808.096 357.781 808.596ZM370.597 768.865C370.597 769.365 370.849 769.614 371.1 769.865C371.351 770.365 371.854 770.864 372.356 771.364C372.859 771.864 373.613 772.113 374.116 772.363C374.87 772.613 375.372 772.613 376.126 772.613C376.88 772.613 377.634 772.364 378.136 772.113C378.89 771.864 379.393 771.364 379.895 770.864C380.398 770.365 380.649 769.865 380.901 769.115C381.151 768.366 381.151 767.866 381.151 767.116C381.151 766.367 380.901 765.867 380.649 765.117C380.398 764.617 379.895 763.868 379.393 763.368C378.89 762.868 378.388 762.618 377.634 762.118C376.88 761.868 376.378 761.619 375.624 761.619C374.87 761.619 374.116 761.619 373.613 761.868C372.859 762.119 372.356 762.368 371.854 762.868C371.351 763.367 370.849 763.868 370.597 764.368C370.345 764.868 370.095 765.617 370.095 766.367C370.095 767.116 370.345 768.115 370.597 768.865ZM351.498 779.859C351.498 783.862 344.86 787.106 336.671 787.106C328.483 787.106 321.845 783.862 321.845 779.859C321.845 775.857 328.483 772.613 336.671 772.613C344.86 772.613 351.498 775.857 351.498 779.859ZM1618.31 42.215C1618.31 37.9671 1616.8 33.969 1614.29 30.7206C1609.26 24.4736 1601.97 20.4755 1593.94 19.2261H1217.98C1209.95 20.4755 1202.66 24.4736 1197.64 30.7206C1195.12 33.969 1193.61 37.9671 1193.61 42.215V62.2055C1193.61 66.4534 1195.12 70.4515 1197.64 73.6999C1202.66 79.9469 1209.95 83.9449 1217.98 85.1944H1593.94C1601.97 83.9449 1609.26 79.9469 1614.29 73.6999C1616.8 70.4515 1618.31 66.4534 1618.31 62.2055V42.215ZM1610.77 42.215C1610.77 39.7163 1610.02 37.4674 1608.51 35.4683C1604.74 30.9704 1599.47 27.7221 1593.43 26.7225H1218.74C1212.96 27.7221 1207.43 30.7206 1203.66 35.4683C1202.15 37.4674 1201.4 39.7163 1201.4 42.215V62.2055C1201.4 64.7042 1202.15 66.9531 1203.66 68.9522C1207.43 73.4501 1212.71 76.6984 1218.74 77.698H1593.68C1599.47 76.6984 1605 73.6999 1608.76 68.9522C1609.77 66.9531 1610.77 64.7042 1610.77 62.2055V42.215ZM1197.38 118.179C1177.53 120.678 1162.45 137.419 1161.94 157.409L1161.7 229.375L1161.94 292.095C1162.45 312.085 1177.53 328.827 1197.38 331.326H1650.23C1670.08 328.827 1685.16 312.085 1685.66 292.095L1685.91 229.375L1685.66 157.409C1685.16 137.419 1670.08 120.678 1650.23 118.179H1197.38ZM1423.8 131.172H1198.39C1185.32 133.171 1175.51 144.415 1175.27 157.409L1175.02 229.125L1175.27 291.595C1175.51 304.839 1185.32 315.833 1198.39 317.833H1649.22C1662.28 315.833 1672.09 304.588 1672.34 291.595L1672.6 229.125V157.66C1672.34 144.415 1662.54 133.421 1649.48 131.422H1423.8V131.172ZM1103.14 375.055C1099.37 374.306 1096.36 371.557 1095.85 367.808C1094.85 362.811 1098.37 358.063 1103.14 357.314H1748.99C1750.49 358.313 1751.75 359.562 1752.76 361.061C1755.53 366.06 1754.02 372.306 1748.99 375.055H1103.14ZM1450.44 388.049C1450.44 389.98 1449.09 391.547 1447.43 391.547C1445.76 391.547 1444.41 389.98 1444.41 388.049C1444.41 386.116 1445.76 384.551 1447.43 384.551C1449.09 384.551 1450.44 386.116 1450.44 388.049ZM1379.83 388.049C1379.83 389.98 1378.48 391.547 1376.81 391.547C1375.14 391.547 1373.8 389.98 1373.8 388.049C1373.8 386.116 1375.14 384.551 1376.81 384.551C1378.48 384.551 1379.83 386.116 1379.83 388.049ZM1262.22 388.049C1262.22 389.98 1260.87 391.547 1259.21 391.547C1257.53 391.547 1256.18 389.98 1256.18 388.049C1256.18 386.116 1257.53 384.551 1259.21 384.551C1260.87 384.551 1262.22 386.116 1262.22 388.049ZM1191.6 388.049C1191.6 389.98 1190.26 391.547 1188.58 391.547C1186.92 391.547 1185.57 389.98 1185.57 388.049C1185.57 386.116 1186.92 384.551 1188.58 384.551C1190.26 384.551 1191.6 386.116 1191.6 388.049ZM1638.67 388.049C1638.67 389.98 1637.32 391.547 1635.66 391.547C1633.98 391.547 1632.63 389.98 1632.63 388.049C1632.63 386.116 1633.98 384.551 1635.66 384.551C1637.32 384.551 1638.67 386.116 1638.67 388.049ZM1568.05 388.049C1568.05 389.98 1566.71 391.547 1565.03 391.547C1563.37 391.547 1562.02 389.98 1562.02 388.049C1562.02 386.116 1563.37 384.551 1565.03 384.551C1566.71 384.551 1568.05 386.116 1568.05 388.049ZM1761.05 388.049C1761.05 389.98 1759.71 391.547 1758.03 391.547C1756.37 391.547 1755.02 389.98 1755.02 388.049C1755.02 386.116 1756.37 384.551 1758.03 384.551C1759.71 384.551 1761.05 386.116 1761.05 388.049ZM1761.05 441.773C1761.05 443.704 1759.71 445.271 1758.03 445.271C1756.37 445.271 1755.02 443.704 1755.02 441.773C1755.02 439.841 1756.37 438.274 1758.03 438.274C1759.71 438.274 1761.05 439.841 1761.05 441.773ZM1761.05 495.496C1761.05 497.429 1759.71 498.996 1758.03 498.996C1756.37 498.996 1755.02 497.429 1755.02 495.496C1755.02 493.565 1756.37 491.998 1758.03 491.998C1759.71 491.998 1761.05 493.565 1761.05 495.496ZM1761.05 549.47C1761.05 551.403 1759.71 552.969 1758.03 552.969C1756.37 552.969 1755.02 551.403 1755.02 549.47C1755.02 547.539 1756.37 545.972 1758.03 545.972C1759.71 545.972 1761.05 547.539 1761.05 549.47ZM1761.05 603.194C1761.05 605.127 1759.71 606.693 1758.03 606.693C1756.37 606.693 1755.02 605.127 1755.02 603.194C1755.02 601.263 1756.37 599.696 1758.03 599.696C1759.71 599.696 1761.05 601.263 1761.05 603.194ZM1761.05 657.168C1761.05 659.101 1759.71 660.667 1758.03 660.667C1756.37 660.667 1755.02 659.101 1755.02 657.168C1755.02 655.237 1756.37 653.67 1758.03 653.67C1759.71 653.67 1761.05 655.237 1761.05 657.168ZM1053.13 472.508C1053.13 471.008 1051.88 469.76 1050.37 469.76H966.937C965.429 469.76 964.172 470.759 964.172 472.258C964.172 472.258 964.172 472.258 964.172 472.508V483.503C964.172 485.002 965.429 486.001 966.686 486.001C966.686 486.001 966.686 486.001 966.937 486.001H1050.37C1051.88 486.001 1053.13 484.752 1053.13 483.252V472.508ZM1020.46 474.757H1032.53V479.505H1020.46V474.757ZM619.637 613.69C619.637 611.191 621.647 608.942 624.161 608.942H662.359C664.872 609.192 666.882 611.191 666.882 613.69V643.176C666.882 645.675 664.872 647.923 662.359 647.923H624.161C621.647 647.674 619.637 645.675 619.637 643.176V613.69ZM664.872 642.676C664.872 644.332 663.521 645.675 661.856 645.675C660.191 645.675 658.841 644.332 658.841 642.676C658.841 641.02 660.191 639.677 661.856 639.677C663.521 639.677 664.872 641.02 664.872 642.676ZM664.872 613.94C664.872 615.595 663.521 616.939 661.856 616.939C660.191 616.939 658.841 615.595 658.841 613.94C658.841 612.284 660.191 610.941 661.856 610.941C663.521 610.941 664.872 612.284 664.872 613.94ZM627.93 642.676C627.93 644.332 626.581 645.675 624.915 645.675C623.25 645.675 621.899 644.332 621.899 642.676C621.899 641.02 623.25 639.677 624.915 639.677C626.581 639.677 627.93 641.02 627.93 642.676ZM627.93 613.94C627.93 615.595 626.581 616.939 624.915 616.939C623.25 616.939 621.899 615.595 621.899 613.94C621.899 612.284 623.25 610.941 624.915 610.941C626.581 610.941 627.93 612.284 627.93 613.94ZM619.637 364.059C619.637 361.561 621.647 359.313 624.161 359.313H662.359C664.872 359.562 666.882 361.561 666.882 364.059V393.546C666.882 396.044 664.872 398.294 662.359 398.294H624.161C621.647 398.043 619.637 396.044 619.637 393.546V364.059ZM664.872 393.297C664.872 394.952 663.521 396.295 661.856 396.295C660.191 396.295 658.841 394.952 658.841 393.297C658.841 391.64 660.191 390.297 661.856 390.297C663.521 390.297 664.872 391.64 664.872 393.297ZM664.872 364.31C664.872 365.966 663.521 367.308 661.856 367.308C660.191 367.308 658.841 365.966 658.841 364.31C658.841 362.654 660.191 361.312 661.856 361.312C663.521 361.312 664.872 362.654 664.872 364.31ZM627.93 393.297C627.93 394.952 626.581 396.295 624.915 396.295C623.25 396.295 621.899 394.952 621.899 393.297C621.899 391.64 623.25 390.297 624.915 390.297C626.581 390.297 627.93 391.64 627.93 393.297ZM627.93 364.31C627.93 365.966 626.581 367.308 624.915 367.308C623.25 367.308 621.899 365.966 621.899 364.31C621.899 362.654 623.25 361.312 624.915 361.312C626.581 361.312 627.93 362.654 627.93 364.31ZM207 466.011C202.727 466.011 199.209 462.513 199.209 458.265C199.209 454.016 202.727 450.518 207 450.518H238.161C242.433 450.518 245.952 454.016 245.952 458.265C245.952 462.513 242.433 466.011 238.161 466.011H207ZM69.0348 493.497C69.0348 495.981 66.447 497.995 63.2549 497.995C60.0627 497.995 57.4749 495.981 57.4749 493.497C57.4749 491.013 60.0627 489 63.2549 489C66.447 489 69.0348 491.013 69.0348 493.497ZM69.0348 595.449C69.0348 597.933 66.447 599.947 63.2549 599.947C60.0627 599.947 57.4749 597.933 57.4749 595.449C57.4749 592.965 60.0627 590.95 63.2549 590.95C66.447 590.95 69.0348 592.965 69.0348 595.449ZM638.988 774.862C632.203 774.362 626.674 768.615 626.674 761.619V741.129C626.674 732.632 633.459 725.885 642.004 725.885H1178.78C1187.33 725.885 1194.11 732.632 1194.11 741.129V761.619C1194.11 768.615 1188.84 774.362 1181.8 774.862H638.988ZM1780.15 749.624C1780.15 759.284 1777.11 767.116 1773.37 767.116C1769.61 767.116 1766.58 759.284 1766.58 749.624C1766.58 739.964 1769.61 732.132 1773.37 732.132C1777.11 732.132 1780.15 739.964 1780.15 749.624ZM1773.37 771.114C1773.87 771.114 1774.37 771.114 1774.87 770.864C1775.38 770.614 1775.87 770.614 1776.13 770.365C1776.64 770.114 1776.88 769.865 1777.39 769.614C1777.64 769.365 1778.14 769.115 1778.39 768.865C1778.9 768.366 1779.4 767.616 1779.9 766.867C1780.4 766.116 1780.65 765.367 1781.15 764.617C1781.41 763.867 1781.91 762.867 1782.16 762.118C1782.41 761.119 1782.66 760.369 1782.92 759.369C1783.41 757.37 1783.67 755.372 1783.92 753.122C1784.18 750.874 1784.18 748.625 1783.92 746.626C1783.67 744.378 1783.41 742.377 1783.16 740.379C1782.92 739.13 1782.41 737.88 1782.16 736.631C1781.91 735.381 1781.15 734.382 1780.65 733.382C1780.4 732.632 1779.9 732.132 1779.4 731.633C1778.9 731.133 1778.39 730.633 1777.88 730.134C1777.39 729.884 1777.13 729.634 1776.64 729.385C1776.13 729.134 1775.63 728.885 1775.12 728.885C1774.63 728.634 1774.12 728.634 1773.37 728.634C1772.86 728.634 1772.11 728.634 1771.6 728.885C1771.1 729.134 1770.6 729.385 1770.1 729.634C1769.59 729.884 1769.1 730.134 1768.84 730.633C1768.33 730.884 1768.09 731.383 1767.84 731.633C1767.58 732.132 1767.33 732.383 1766.83 732.883C1766.33 733.882 1765.83 734.631 1765.32 735.631C1764.82 736.631 1764.57 737.88 1764.32 738.879C1764.06 740.129 1763.82 741.378 1763.56 742.628C1763.31 743.877 1763.31 745.127 1763.06 746.626C1762.81 749.375 1762.81 752.373 1763.31 755.122C1763.56 756.871 1763.82 758.37 1764.06 759.869C1764.32 761.368 1764.82 762.868 1765.32 764.117C1765.57 764.868 1766.08 765.867 1766.58 766.616C1767.09 767.366 1767.58 768.115 1768.09 768.615C1768.59 769.115 1768.84 769.365 1769.35 769.865C1769.85 770.114 1770.35 770.614 1770.85 770.864C1771.36 771.114 1771.86 771.114 1772.36 771.364C1772.61 770.864 1773.11 771.114 1773.37 771.114ZM1755.27 770.864H1784.67V774.612H1755.27V770.864ZM1732.16 675.91H1763.56V708.144H1732.16V675.91ZM1706.27 708.894C1706.27 713.172 1702.78 716.641 1698.47 716.641C1694.17 716.641 1690.69 713.172 1690.69 708.894C1690.69 704.616 1694.17 701.148 1698.47 701.148C1702.78 701.148 1706.27 704.616 1706.27 708.894ZM1788.69 715.891H1825.13V734.131H1788.69V715.891ZM1865.34 753.872C1865.34 758.288 1861.74 761.868 1857.3 761.868C1852.86 761.868 1849.26 758.288 1849.26 753.872C1849.26 749.456 1852.86 745.876 1857.3 745.876C1861.74 745.876 1865.34 749.456 1865.34 753.872Z" stroke="#448E1F" stroke-width="6" stroke-miterlimit="10" stroke-linecap="round" stroke-linejoin="round"/>
<path d="M1695 626.798L1705.53 597.162H1719.17L1710.67 620.927H1722L1719.9 626.798H1695Z" fill="#2B7212"/>
<path d="M1730.47 597.121H1722.21L1714.8 618.093H1723.1L1727.39 606.109C1727.39 606.109 1728 604.935 1729.58 604.368C1731.15 603.802 1732.65 604.004 1732.65 604.004L1735 597L1729.74 598.7L1730.47 597.121Z" fill="#2B7212"/>
</svg>